# xmcd
#
# Track frame offsets:
#	150
#	13654
#	28103
#	43745
#	61472
#	78883
#	95821
#
# Disc length: 1471 seconds
# Revision: 0
# Processed by: cddbd v1.5.2PL0 Copyright (c) Steve Scherf et al.
# Submitted via: dBpowerAMP V12.0
#
DISCID=5505bd07
DTITLE=Beth Cayhall - Blonde Behind The Wheel
DYEAR=2004
DGENRE=Country
TTITLE0=Blonde Behind The Wheel
TTITLE1=Passing Time
TTITLE2=Hey You I'll Be Gone
TTITLE3=That Wouldn't Be You
TTITLE4=Swingin Door
TTITLE5=It Should Have Been Me
TTITLE6=High Life
EXTD=
EXTT0=
EXTT1=
EXTT2=
EXTT3=
EXTT4=
EXTT5=
EXTT6=
PLAYORDER=
